<svg xmlns="http://www.w3.org/2000/svg" width="24" height="24" viewBox="0 0 24 24">
    <g data-name="그룹 508">
        <path data-name="사각형 3" style="fill:none;opacity:.1" d="M0 0h24v24H0z"/>
        <g data-name="그룹 503">
            <g data-name="그룹 504">
                <path data-name="패스 176" d="M18.005 11.686a4.969 4.969 0 0 1 2.374-4.182 5.15 5.15 0 0 0-4.019-2.186c-1.717-.173-3.347 1.011-4.217 1.011s-2.211-.983-3.63-.954A5.384 5.384 0 0 0 3.964 8.13c-1.939 3.367-.5 8.356 1.4 11.085.923 1.337 2.023 2.837 3.468 2.784 1.4-.054 1.923-.9 3.608-.9s2.158.9 3.632.878c1.5-.031 2.45-1.367 3.364-2.7a12.212 12.212 0 0 0 1.521-3.141 4.851 4.851 0 0 1-2.952-4.454"/>
                <path data-name="패스 177" d="M15.234 3.511A4.83 4.83 0 0 0 16.379 0a4.93 4.93 0 0 0-3.238 1.665 4.61 4.61 0 0 0-1.169 3.407 4.083 4.083 0 0 0 3.262-1.56"/>
            </g>
        </g>
    </g>
</svg>
