<svg xmlns="http://www.w3.org/2000/svg" width="28" height="28" viewBox="0 0 28 28">
    <defs>
        <clipPath id="7v82jqu4ea">
            <path data-name="사각형 358" style="fill:none" d="M0 0h21.56v22H0z"/>
        </clipPath>
    </defs>
    <g data-name="그룹 398">
        <path data-name="사각형 3" style="opacity:.1;fill:none" d="M0 0h28v28H0z"/>
        <g data-name="그룹 397">
            <g data-name="그룹 396" style="clip-path:url(#7v82jqu4ea)" transform="translate(3.22 3)">
                <path data-name="패스 134" d="M21.56 11.25a12.639 12.639 0 0 0-.2-2.25H11v4.255h5.92a5.06 5.06 0 0 1-2.195 3.32v2.76h3.555a10.728 10.728 0 0 0 3.28-8.085" style="fill-rule:evenodd;fill:#3e82f1"/>
                <path data-name="패스 135" d="M11 22a10.5 10.5 0 0 0 7.28-2.665l-3.555-2.76a6.636 6.636 0 0 1-9.88-3.485H1.17v2.85A11 11 0 0 0 11 22" style="fill:#32a753;fill-rule:evenodd"/>
                <path data-name="패스 136" d="M4.845 13.09a6.5 6.5 0 0 1 0-4.18V6.06H1.17a11.014 11.014 0 0 0 0 9.88z" style="fill:#f9bb00;fill-rule:evenodd"/>
                <path data-name="패스 137" d="M11 4.375a5.942 5.942 0 0 1 4.2 1.645l3.16-3.155A10.572 10.572 0 0 0 11 0a11 11 0 0 0-9.83 6.06l3.675 2.85A6.556 6.556 0 0 1 11 4.375" style="fill:#e74133;fill-rule:evenodd"/>
            </g>
        </g>
    </g>
</svg>
