<svg xmlns="http://www.w3.org/2000/svg" width="24" height="24" viewBox="0 0 24 24">
    <path data-name="사각형 3" style="opacity:.1;fill:none" d="M0 0h24v24H0z"/>
    <g data-name="그룹 329">
        <path data-name="↳Color" d="M10 13a11.031 11.031 0 0 1-6.115-1.823A10.356 10.356 0 0 1 0 6.5a10.355 10.355 0 0 1 3.885-4.677 11.165 11.165 0 0 1 12.23 0A10.356 10.356 0 0 1 20 6.5a10.356 10.356 0 0 1-3.885 4.677A11.031 11.031 0 0 1 10 13zm0-10.833A4.448 4.448 0 0 0 5.455 6.5 4.448 4.448 0 0 0 10 10.833 4.449 4.449 0 0 0 14.546 6.5 4.448 4.448 0 0 0 10 2.167zM10 9.1a2.669 2.669 0 0 1-2.727-2.6A2.669 2.669 0 0 1 10 3.9a2.669 2.669 0 0 1 2.728 2.6A2.669 2.669 0 0 1 10 9.1z" transform="translate(2 5.5)" style="fill:#d6dce2"/>
        <path data-name="패스 108" d="m306.936 15-16 16" transform="translate(-286.936 -11)" style="stroke:#d6dce2;stroke-width:2px;fill:none"/>
    </g>
</svg>
