<svg width="24" height="24" viewBox="0 0 24 24" fill="none" xmlns="http://www.w3.org/2000/svg">
<path d="M3.6998 19.9995C2.0998 19.9995 0.799805 18.6995 0.799805 17.0995V6.89948C0.799805 5.89948 1.2998 5.09948 2.0998 4.59948C2.9998 4.09948 3.9998 4.09948 4.7998 4.49948L9.9998 7.39948C10.2998 7.59948 10.4998 7.89948 10.4998 8.29948V11.6995C10.4998 12.2995 10.7998 12.7995 11.2998 13.0995L14.5998 14.9995C14.8998 15.1995 15.0998 15.4995 15.0998 15.8995V17.2995C15.0998 18.2995 14.5998 19.0995 13.7998 19.5995C12.9998 20.0995 11.9998 20.0995 11.0998 19.5995L6.6998 17.0995C6.5998 18.6995 5.2998 19.9995 3.6998 19.9995ZM3.4998 6.19948C3.2998 6.19948 3.1998 6.29948 3.0998 6.29948C2.9998 6.39948 2.7998 6.49948 2.7998 6.89948V17.0995C2.7998 17.5995 3.1998 17.9995 3.6998 17.9995C4.1998 17.9995 4.5998 17.5995 4.5998 17.0995V15.7995C4.5998 15.3995 4.7998 14.9995 5.1998 14.6995C5.5998 14.4995 5.9998 14.4995 6.3998 14.6995L11.9998 17.7995C12.2998 17.9995 12.5998 17.8995 12.6998 17.7995C12.7998 17.6995 13.0998 17.5995 13.0998 17.1995V16.3995L10.2998 14.7995C9.1998 14.1995 8.4998 12.9995 8.4998 11.6995V8.89948L3.7998 6.29948C3.6998 6.19948 3.5998 6.19948 3.4998 6.19948Z" fill="#6a7187"/>
<path d="M20.1 19.8996C19.6 19.8996 19.2 19.7996 18.8 19.4996L13.7 16.5996L14.7 14.8996L19.8 17.7996C20.1 17.9996 20.4 17.8996 20.5 17.7996C20.6 17.6996 20.9 17.5996 20.9 17.1996V12.3996C20.9 11.7996 20.6 11.2996 20.1 10.9996L11.6 6.19961C11.3 5.99961 11 6.09961 10.9 6.19961C10.8 6.29961 10.5 6.39961 10.5 6.79961V8.19961H8.5V6.89961C8.5 5.89961 9 5.09961 9.8 4.59961C10.6 4.09961 11.6 4.09961 12.5 4.59961L21 9.29961C22.1 9.89961 22.8 11.0996 22.8 12.3996V17.1996C22.8 18.1996 22.3 18.9996 21.5 19.4996C21 19.7996 20.5 19.8996 20.1 19.8996Z" fill="#6a7187"/>
</svg>
